<svg xmlns="http://www.w3.org/2000/svg" width="28" height="28" viewBox="0 0 28 28">
  <g id="camera" transform="translate(5360.647 727.647)">
    <rect id="사각형_12" data-name="사각형 12" width="28" height="28" transform="translate(-5360.647 -727.647)" fill="none"/>
    <g id="그룹_24" data-name="그룹 24" transform="translate(-5357.647 -723.647)">
      <g id="그룹_1569" data-name="그룹 1569" transform="translate(0 0)">
        <g id="그룹_1568" data-name="그룹 1568">
          <path id="패스_176" data-name="패스 176" d="M136.346,157a5.346,5.346,0,1,0,5.346,5.346A5.352,5.352,0,0,0,136.346,157Zm0,8.981a3.635,3.635,0,1,1,3.635-3.635A3.639,3.639,0,0,1,136.346,165.981Z" transform="translate(-125.398 -151.355)" fill="#fff"/>
          <path id="패스_177" data-name="패스 177" d="M19.331,28.079H16.184a.265.265,0,0,1-.236-.142l-.871-1.829-.007-.015A1.966,1.966,0,0,0,13.3,25H8.655a1.966,1.966,0,0,0-1.768,1.093l-.007.015-.871,1.829a.265.265,0,0,1-.236.142H2.566A2.569,2.569,0,0,0,0,30.645V42.192a2.569,2.569,0,0,0,2.566,2.566H19.331A2.569,2.569,0,0,0,21.9,42.192V30.645A2.569,2.569,0,0,0,19.331,28.079Zm.855,14.113a.856.856,0,0,1-.855.855H2.566a.856.856,0,0,1-.855-.855V30.645a.856.856,0,0,1,.855-.855H5.774A1.966,1.966,0,0,0,7.542,28.7l.007-.015.871-1.829a.265.265,0,0,1,.235-.142H13.3a.265.265,0,0,1,.235.142l.871,1.829.007.015a1.966,1.966,0,0,0,1.768,1.093h3.147a.856.856,0,0,1,.855.855Z" transform="translate(0 -25)" fill="#fff"/>
          <rect id="사각형_836" data-name="사각형 836" width="1.761" height="1.761" rx="0.88" transform="translate(16.719 6.456)" fill="#fff"/>
        </g>
      </g>
    </g>
  </g>
</svg>
