<svg xmlns="http://www.w3.org/2000/svg" width="54" height="54" viewBox="0 0 54 54">
  <g id="eye-off" transform="translate(-550 -2107)">
    <circle id="타원_103" data-name="타원 103" cx="27" cy="27" r="27" transform="translate(550 2107)" fill="rgba(0,0,0,0.7)"/>
    <path id="패스_227" data-name="패스 227" d="M762.913,635.842c-.024-.1-2.6-10.364-13.7-10.364a15.654,15.654,0,0,0-4.977.759l-1.985-2.91a.742.742,0,0,0-1.042-.192.766.766,0,0,0-.189,1.056l1.785,2.617a12.916,12.916,0,0,0-6.8,8.312l-.041.2.064.194c.031.095,3.273,9.548,13.432,9.548a15.139,15.139,0,0,0,5.2-.878l1.9,2.782a.741.741,0,0,0,1.041.192.765.765,0,0,0,.189-1.056l-1.719-2.521a14.671,14.671,0,0,0,6.815-7.3l.077-.216Zm-13.45,7.7c-8.39,0-11.442-7-11.941-8.313a11.252,11.252,0,0,1,6.156-7.151l2.821,4.135a4.439,4.439,0,0,0-.792,5.474,3.841,3.841,0,0,0,3.473,2.076,5.6,5.6,0,0,0,2.152-.463l2.443,3.58A13.843,13.843,0,0,1,749.463,643.544Zm-2.092-10.05,3.085,4.522a2.67,2.67,0,0,1-3.458-1.1A2.835,2.835,0,0,1,747.371,633.494Zm7.836,8.816-10.065-14.753a14.341,14.341,0,0,1,4.075-.562,12.316,12.316,0,0,1,12.18,8.974A13.043,13.043,0,0,1,755.207,642.311Z" transform="translate(-172.966 1499)" fill="#fff"/>
  </g>
</svg>
