<svg xmlns="http://www.w3.org/2000/svg" width="54" height="54" viewBox="0 0 54 54">
  <g id="eye" transform="translate(-550 -2107)">
    <circle id="타원_103" data-name="타원 103" cx="27" cy="27" r="27" transform="translate(550 2107)" fill="rgba(0,0,0,0.7)"/>
    <g id="그룹_1790" data-name="그룹 1790" transform="translate(563 2124.25)">
      <g id="그룹_1788" data-name="그룹 1788">
        <path id="패스_179" data-name="패스 179" d="M775.464,328.5c-10.161,0-13.4-9.414-13.434-9.509l-.063-.191.04-.2c.019-.1,2.087-9.6,13.21-9.6,11.1,0,13.673,10.219,13.7,10.322l.052.219-.076.211A14.326,14.326,0,0,1,775.464,328.5Zm-11.943-9.787c.5,1.3,3.546,8.287,11.943,8.287a12.763,12.763,0,0,0,11.935-7.552,12.306,12.306,0,0,0-12.182-8.948C766.15,310.5,763.86,317.459,763.521,318.713Z" transform="translate(-761.967 -309)" fill="#fff"/>
      </g>
      <g id="그룹_1789" data-name="그룹 1789" transform="translate(9.027 5.269)">
        <path id="패스_180" data-name="패스 180" d="M778.51,324.988a4.481,4.481,0,1,1,4.47-4.481A4.481,4.481,0,0,1,778.51,324.988Zm0-7.463a2.981,2.981,0,1,0,2.97,2.981A2.98,2.98,0,0,0,778.51,317.525Z" transform="translate(-774.04 -316.025)" fill="#fff"/>
      </g>
    </g>
  </g>
</svg>
