<svg xmlns="http://www.w3.org/2000/svg" xmlns:xlink="http://www.w3.org/1999/xlink" width="210" height="210" viewBox="0 0 210 210">
  <defs>
    <clipPath id="clip-path">
      <circle id="타원_113" data-name="타원 113" cx="105" cy="105" r="105" transform="translate(1030 1524)" fill="#fff" stroke="#707070" stroke-width="1"/>
    </clipPath>
    <clipPath id="clip-path-2">
      <circle id="타원_111" data-name="타원 111" cx="106" cy="106" r="106" transform="translate(430.991 -1192.009)" fill="#fff" stroke="#707070" stroke-width="1"/>
    </clipPath>
    <linearGradient id="linear-gradient" x1="0.067" y1="0.197" x2="0.903" y2="0.864" gradientUnits="objectBoundingBox">
      <stop offset="0" stop-color="#fac712"/>
      <stop offset="1" stop-color="#f69f23"/>
    </linearGradient>
    <linearGradient id="linear-gradient-3" x1="0.939" y1="0.658" x2="0.05" y2="0.5" gradientUnits="objectBoundingBox">
      <stop offset="0" stop-color="#fac712"/>
      <stop offset="1" stop-color="#feef00"/>
    </linearGradient>
    <linearGradient id="linear-gradient-4" x1="0.165" y1="0.093" x2="0.777" y2="1" gradientUnits="objectBoundingBox">
      <stop offset="0" stop-color="#f69f23"/>
      <stop offset="1" stop-color="#fb6312"/>
    </linearGradient>
    <linearGradient id="linear-gradient-5" x1="0.923" y1="0.5" x2="0" y2="0.5" gradientUnits="objectBoundingBox">
      <stop offset="0" stop-color="#7421b0"/>
      <stop offset="1" stop-color="#3a48ba"/>
    </linearGradient>
    <linearGradient id="linear-gradient-6" x1="0.863" y1="0.783" x2="0.14" y2="0.168" gradientUnits="objectBoundingBox">
      <stop offset="0" stop-color="#3a48ba"/>
      <stop offset="1" stop-color="#006fc4"/>
    </linearGradient>
    <linearGradient id="linear-gradient-8" x1="0.878" y1="0.121" x2="0.043" y2="0.802" gradientUnits="objectBoundingBox">
      <stop offset="0" stop-color="#d2298e"/>
      <stop offset="1" stop-color="#7421b0"/>
    </linearGradient>
    <linearGradient id="linear-gradient-10" x1="0.625" y1="0.698" x2="0.197" y2="0.034" gradientUnits="objectBoundingBox">
      <stop offset="0" stop-color="#006fc4"/>
      <stop offset="1" stop-color="#00c2af"/>
    </linearGradient>
    <linearGradient id="linear-gradient-11" x1="0.788" y1="0.076" x2="0.152" y2="0.875" gradientUnits="objectBoundingBox">
      <stop offset="0" stop-color="#ff2600"/>
      <stop offset="1" stop-color="#d2298e"/>
    </linearGradient>
    <linearGradient id="linear-gradient-12" x1="0.562" y1="0.141" x2="0.5" y2="1" gradientUnits="objectBoundingBox">
      <stop offset="0" stop-color="#fb6312"/>
      <stop offset="1" stop-color="#ff2600"/>
    </linearGradient>
    <linearGradient id="linear-gradient-13" x1="0.5" y1="0.958" x2="0.5" gradientUnits="objectBoundingBox">
      <stop offset="0" stop-color="#00c2af"/>
      <stop offset="1" stop-color="#00b500"/>
    </linearGradient>
    <linearGradient id="linear-gradient-14" x1="0.107" y1="0.817" x2="0.921" y2="0.149" gradientUnits="objectBoundingBox">
      <stop offset="0" stop-color="#7fd200"/>
      <stop offset="1" stop-color="#feef00"/>
    </linearGradient>
    <linearGradient id="linear-gradient-16" x1="0.251" y1="1" x2="0.822" y2="0.108" gradientUnits="objectBoundingBox">
      <stop offset="0" stop-color="#00b500"/>
      <stop offset="1" stop-color="#7fd200"/>
    </linearGradient>
  </defs>
  <g id="마스크_그룹_9" data-name="마스크 그룹 9" transform="translate(-1030 -1524)" clip-path="url(#clip-path)">
    <g id="color-img" transform="translate(598.009 2715.009)" clip-path="url(#clip-path-2)">
      <g id="그룹_1891" data-name="그룹 1891" transform="translate(431 -1192)">
        <circle id="타원_110" data-name="타원 110" cx="93" cy="93" r="93" transform="translate(11.991 11.991)" fill="#fff"/>
        <g id="그룹_1890" data-name="그룹 1890" transform="translate(0 0)">
          <path id="패스_228" data-name="패스 228" d="M1059.352,338.546l.019.019-.019-.019Z" transform="translate(-878.672 -157.867)" fill="none"/>
          <path id="패스_229" data-name="패스 229" d="M863.792,225.648h0Z" transform="translate(-860.174 -147.096)" fill="none"/>
          <path id="패스_230" data-name="패스 230" d="M1001.985,159.988a89.191,89.191,0,0,1,40.02,23.123l12.438-12.439h0l.019-.019-.1-.056a106.761,106.761,0,0,0-47.822-27.611h0Z" transform="translate(-873.763 -139.369)" fill="url(#linear-gradient)"/>
          <path id="패스_254" data-name="패스 254" d="M1001.985,159.988a89.191,89.191,0,0,1,40.02,23.123l12.438-12.439h0l.019-.019-.1-.056a106.761,106.761,0,0,0-47.822-27.611h0Z" transform="translate(-873.763 -137.35)" fill="url(#linear-gradient)"/>
          <path id="패스_231" data-name="패스 231" d="M946.455,142.647l4.556,17a89.748,89.748,0,0,1,46.223,0l4.557-17a107.669,107.669,0,0,0-55.336,0h0Z" transform="translate(-868.13 -139.031)" fill="url(#linear-gradient-3)"/>
          <rect id="사각형_856" data-name="사각형 856" width="17.602" transform="translate(128.89 20.619) rotate(-75)" fill="#feef00"/>
          <path id="패스_232" data-name="패스 232" d="M1045.75,185.7a89.178,89.178,0,0,1,23.122,40.019l17-4.556h0l0,0a106.762,106.762,0,0,0-27.608-47.819l-.057-.1h0Z" transform="translate(-877.508 -141.958)" fill="url(#linear-gradient-4)"/>
          <path id="패스_233" data-name="패스 233" d="M1058.188,173.261,1045.75,185.7h0l12.458-12.458h0l-.019.019Z" transform="translate(-877.508 -141.958)" fill="#f69f23"/>
          <path id="패스_234" data-name="패스 234" d="M997.233,350.23a89.748,89.748,0,0,1-46.223,0l-4.557,17h0a107.654,107.654,0,0,0,55.332,0h0Z" transform="translate(-868.13 -158.867)" fill="url(#linear-gradient-5)"/>
          <path id="패스_235" data-name="패스 235" d="M941.97,365.068l4.556-17a89.183,89.183,0,0,1-40.019-23.122l-12.44,12.44h0l-.017.018.089.051a106.757,106.757,0,0,0,47.832,27.617h0Z" transform="translate(-862.764 -156.703)" fill="url(#linear-gradient-6)"/>
          <path id="패스_252" data-name="패스 252" d="M941.97,365.068l4.556-17a89.183,89.183,0,0,1-40.019-23.122l-12.44,12.44h0l-.017.018.089.051a106.757,106.757,0,0,0,47.832,27.617h0Z" transform="translate(-865.709 -158.722)" fill="url(#linear-gradient-6)"/>
          <path id="패스_236" data-name="패스 236" d="M946.454,367.232h0l4.556-17h0Z" transform="translate(-867.916 -158.867)" fill="#3a48ba"/>
          <path id="패스_237" data-name="패스 237" d="M1054.443,337.382l-12.438-12.439a89.181,89.181,0,0,1-40.02,23.122l4.556,17h0a106.749,106.749,0,0,0,47.822-27.609l.1-.058h0l-.019-.019Z" transform="translate(-873.763 -156.703)" fill="url(#linear-gradient-8)"/>
          <path id="패스_253" data-name="패스 253" d="M1054.443,337.382l-12.438-12.439a89.181,89.181,0,0,1-40.02,23.122l4.556,17h0a106.749,106.749,0,0,0,47.822-27.609l.1-.058h0l-.019-.019Z" transform="translate(-873.095 -157.712)" fill="url(#linear-gradient-8)"/>
          <path id="패스_238" data-name="패스 238" d="M1006.541,367.232l-4.556-17h0l4.556,17h0Z" transform="translate(-873.095 -158.867)" fill="#d2298e"/>
          <path id="패스_239" data-name="패스 239" d="M903.917,321.2a89.183,89.183,0,0,1-23.122-40.019l-17,4.556a106.754,106.754,0,0,0,27.616,47.829l.053.092h0Z" transform="translate(-860.174 -152.958)" fill="url(#linear-gradient-10)"/>
          <path id="패스_240" data-name="패스 240" d="M894.066,337.383l12.44-12.44h0L894.048,337.4h0l.018-.018Z" transform="translate(-862.764 -156.703)" fill="#006fc4"/>
          <path id="패스_241" data-name="패스 241" d="M1085.875,285.735l-17-4.556A89.183,89.183,0,0,1,1045.75,321.2l12.438,12.439h0l.019.019.056-.1a106.756,106.756,0,0,0,27.609-47.818l0-.006Z" transform="translate(-877.508 -152.958)" fill="url(#linear-gradient-11)"/>
          <path id="패스_242" data-name="패스 242" d="M1045.75,324.943l12.438,12.439h0l-12.439-12.439Z" transform="translate(-877.508 -156.703)" fill="#ff2600"/>
          <path id="패스_243" data-name="패스 243" d="M1071.036,230.2a89.756,89.756,0,0,1,0,46.224l17,4.555h0v0a107.662,107.662,0,0,0,0-55.324v-.006h0Z" transform="translate(-879.672 -147.325)" fill="url(#linear-gradient-12)"/>
          <path id="패스_244" data-name="패스 244" d="M1088.038,225.648l-17,4.556h0l17-4.556h0Z" transform="translate(-879.672 -147.11)" fill="#fb6312"/>
          <path id="패스_245" data-name="패스 245" d="M1088.038,285.734l-17-4.556h0l17,4.556h0Z" transform="translate(-879.672 -152.29)" fill="#fb6312"/>
          <path id="패스_246" data-name="패스 246" d="M863.454,280.983l17-4.556a89.726,89.726,0,0,1,0-46.224l-17-4.556h0a107.67,107.67,0,0,0,0,55.336Z" transform="translate(-859.836 -147.324)" fill="url(#linear-gradient-13)"/>
          <path id="패스_247" data-name="패스 247" d="M880.794,281.179l-17,4.556h0l17-4.556Z" transform="translate(-860.174 -152.29)" fill="#00c2af"/>
          <path id="패스_248" data-name="패스 248" d="M906.506,183.111a89.183,89.183,0,0,1,40.02-23.123l-.752-2.8-.687-2.562-.152-.566c-.292-1.091-.573-2.141-.848-3.165l-.469-1.749q-.444-1.66-.869-3.243l-.781-2.914A106.758,106.758,0,0,0,894.14,170.6l-.091.053h0Z" transform="translate(-862.764 -139.369)" fill="url(#linear-gradient-14)"/>
          <path id="패스_255" data-name="패스 255" d="M906.506,183.111a89.183,89.183,0,0,1,40.02-23.123l-.752-2.8-.687-2.562-.152-.566c-.292-1.091-.573-2.141-.848-3.165l-.469-1.749q-.444-1.66-.869-3.243l-.781-2.914A106.758,106.758,0,0,0,894.14,170.6l-.091.053h0Z" transform="translate(-863.431 -138.36)" fill="url(#linear-gradient-14)"/>
          <path id="패스_249" data-name="패스 249" d="M948.1,149.142l.469,1.749c.274,1.024.556,2.074.848,3.165l.152.566.687,2.562.752,2.8h0l-4.556-17h0l.781,2.914Q947.66,147.484,948.1,149.142Z" transform="translate(-867.916 -139.369)" fill="#7fd200"/>
          <path id="패스_250" data-name="패스 250" d="M863.792,221.164l17,4.556A89.173,89.173,0,0,1,903.917,185.7L891.46,173.242l-.052.09a106.758,106.758,0,0,0-27.618,47.831Z" transform="translate(-860.174 -141.958)" fill="url(#linear-gradient-16)"/>
          <path id="패스_251" data-name="패스 251" d="M863.792,225.648h0l17,4.556h0Z" transform="translate(-860.175 -147.11)" fill="#00b500"/>
          <rect id="사각형_857" data-name="사각형 857" height="17.618" transform="translate(31.285 31.283) rotate(-45)" fill="#00b500"/>
        </g>
      </g>
      <circle id="타원_112" data-name="타원 112" cx="90" cy="90" r="90" transform="translate(446.991 -1176.009)" fill="#fff"/>
      <text id="_" data-name="?" transform="translate(507.991 -1043.009)" font-size="123" font-family="Pretendard-Regular, Pretendard"><tspan x="0" y="0">?</tspan></text>
    </g>
  </g>
</svg>
